<svg width="1200" height="720" viewBox="0 0 1200 720" fill="none" xmlns="http://www.w3.org/2000/svg" font-family="Segoe UI, Arial, sans-serif">
  <defs>
    <linearGradient id="brand" x1="0" y1="0" x2="1" y2="1">
      <stop stop-color="#818cf8"/>
      <stop offset="1" stop-color="#22d3ee"/>
    </linearGradient>
    <linearGradient id="bg" x1="0" y1="0" x2="1" y2="1">
      <stop stop-color="#0c111c"/>
      <stop offset="1" stop-color="#090c14"/>
    </linearGradient>
  </defs>

  <rect width="1200" height="720" rx="20" fill="url(#bg)"/>
  <circle cx="180" cy="60" r="260" fill="#818cf8" fill-opacity="0.10"/>
  <circle cx="1080" cy="80" r="280" fill="#22d3ee" fill-opacity="0.08"/>

  <!-- Sidebar -->
  <rect x="24" y="24" width="220" height="672" rx="16" fill="#0f1420" stroke="#1c2638"/>
  <rect x="48" y="48" width="38" height="38" rx="11" fill="url(#brand)"/>
  <circle cx="67" cy="67" r="7" fill="none" stroke="#0a0e17" stroke-width="2.2"/>
  <line x1="71.5" y1="71.5" x2="76" y2="76" stroke="#0a0e17" stroke-width="2.4" stroke-linecap="round"/>
  <text x="98" y="64" fill="#e7edf6" font-size="16" font-weight="700">Podscope</text>
  <text x="98" y="82" fill="#8a97ad" font-size="11">Kubernetes review</text>

  <rect x="44" y="120" width="180" height="38" rx="9" fill="#172033" stroke="#283449"/>
  <text x="70" y="144" fill="#e7edf6" font-size="13" font-weight="600">Review</text>
  <text x="70" y="190" fill="#8a97ad" font-size="13">Rules</text>
  <text x="70" y="232" fill="#8a97ad" font-size="13">Examples</text>
  <text x="70" y="274" fill="#8a97ad" font-size="13">Docs</text>
  <circle cx="52" cy="660" r="4" fill="#34d399"/>
  <text x="64" y="664" fill="#8a97ad" font-size="11">Local engine · 43 rules</text>

  <!-- Header -->
  <text x="272" y="58" fill="#e7edf6" font-size="24" font-weight="800">Review</text>
  <text x="272" y="82" fill="#8a97ad" font-size="13">Catch risky workload, RBAC, exposure, and reliability issues before deploy.</text>

  <!-- Editor panel -->
  <rect x="272" y="104" width="430" height="568" rx="16" fill="#0f1420" stroke="#1c2638"/>
  <rect x="296" y="128" width="150" height="30" rx="8" fill="#141b2a" stroke="#26324a"/>
  <text x="312" y="148" fill="#cdd7e6" font-size="12" font-family="Consolas, monospace">checkout.yaml</text>
  <rect x="612" y="128" width="66" height="30" rx="8" fill="url(#brand)"/>
  <text x="628" y="148" fill="#08111c" font-size="12" font-weight="700">Run</text>

  <rect x="296" y="172" width="382" height="408" rx="10" fill="#070a11" stroke="#1c2638"/>
  <rect x="296" y="172" width="34" height="408" rx="10" fill="#0c111b"/>
  <g fill="#3f4a5f" font-size="11" font-family="Consolas, monospace" text-anchor="end">
    <text x="322" y="198">1</text><text x="322" y="220">2</text><text x="322" y="242">3</text>
    <text x="322" y="264">4</text><text x="322" y="286">5</text><text x="322" y="308">6</text>
    <text x="322" y="330">7</text><text x="322" y="352">8</text>
  </g>
  <g font-size="12.5" font-family="Consolas, monospace">
    <text x="344" y="198" fill="#9fb0c9">apiVersion: apps/v1</text>
    <text x="344" y="220" fill="#9fb0c9">kind: Deployment</text>
    <text x="344" y="242" fill="#9fb0c9">metadata:</text>
    <text x="344" y="264" fill="#9fb0c9">  name: checkout</text>
    <text x="344" y="286" fill="#9fb0c9">spec:</text>
    <text x="344" y="308" fill="#9fb0c9">  template:</text>
    <text x="344" y="330" fill="#9fb0c9">    securityContext:</text>
    <text x="344" y="352" fill="#fb923c">      privileged: true</text>
  </g>
  <rect x="296" y="600" width="120" height="28" rx="14" fill="#141b2a" stroke="#283449"/>
  <text x="316" y="618" fill="#fda4af" font-size="11" font-weight="700">Risky web stack</text>
  <rect x="424" y="600" width="120" height="28" rx="14" fill="#141b2a" stroke="#283449"/>
  <text x="444" y="618" fill="#6ee7b7" font-size="11" font-weight="700">Hardened stack</text>

  <!-- Results -->
  <rect x="718" y="104" width="458" height="190" rx="16" fill="#0f1420" stroke="#1c2638"/>
  <circle cx="790" cy="195" r="52" fill="none" stroke="#243049" stroke-width="10"/>
  <circle cx="790" cy="195" r="52" fill="none" stroke="#f43f5e" stroke-width="10" stroke-linecap="round"
    stroke-dasharray="327" stroke-dashoffset="294" transform="rotate(-90 790 195)"/>
  <text x="790" y="200" fill="#e7edf6" font-size="30" font-weight="800" text-anchor="middle">10</text>
  <text x="790" y="220" fill="#8a97ad" font-size="11" text-anchor="middle">/ 100</text>

  <rect x="864" y="150" width="78" height="26" rx="13" fill="#141b2a" stroke="#2a3144"/>
  <text x="903" y="167" fill="#f43f5e" font-size="12" font-weight="700" text-anchor="middle">Grade F</text>
  <rect x="950" y="150" width="86" height="26" rx="13" fill="#f43f5e" fill-opacity="0.16"/>
  <text x="993" y="167" fill="#fda4af" font-size="12" font-weight="700" text-anchor="middle">Blocked</text>
  <text x="864" y="200" fill="#8a97ad" font-size="12">Blocking issues found.</text>
  <text x="864" y="218" fill="#8a97ad" font-size="12">Resolve critical and high findings before deploy.</text>
  <rect x="864" y="236" width="288" height="7" rx="4" fill="#f43f5e" fill-opacity="0.3"/>
  <rect x="864" y="236" width="160" height="7" rx="4" fill="#34d399"/>
  <text x="864" y="262" fill="#8a97ad" font-size="11">24 passed · 19 failed · 43 checks</text>

  <!-- Severity breakdown -->
  <rect x="718" y="306" width="458" height="96" rx="16" fill="#0f1420" stroke="#1c2638"/>
  <g>
    <rect x="740" y="328" width="80" height="56" rx="9" fill="#141b2a" stroke="#f43f5e" stroke-opacity="0.5"/>
    <circle cx="754" cy="344" r="4" fill="#f43f5e"/>
    <text x="752" y="368" fill="#e7edf6" font-size="18" font-weight="800">2</text>
    <text x="752" y="380" fill="#8a97ad" font-size="10">Critical</text>

    <rect x="828" y="328" width="80" height="56" rx="9" fill="#141b2a" stroke="#26324a"/>
    <circle cx="842" cy="344" r="4" fill="#fb923c"/>
    <text x="840" y="368" fill="#e7edf6" font-size="18" font-weight="800">6</text>
    <text x="840" y="380" fill="#8a97ad" font-size="10">High</text>

    <rect x="916" y="328" width="80" height="56" rx="9" fill="#141b2a" stroke="#26324a"/>
    <circle cx="930" cy="344" r="4" fill="#facc15"/>
    <text x="928" y="368" fill="#e7edf6" font-size="18" font-weight="800">9</text>
    <text x="928" y="380" fill="#8a97ad" font-size="10">Medium</text>

    <rect x="1004" y="328" width="80" height="56" rx="9" fill="#141b2a" stroke="#26324a"/>
    <circle cx="1018" cy="344" r="4" fill="#38bdf8"/>
    <text x="1016" y="368" fill="#e7edf6" font-size="18" font-weight="800">7</text>
    <text x="1016" y="380" fill="#8a97ad" font-size="10">Low</text>

    <rect x="1092" y="328" width="62" height="56" rx="9" fill="#141b2a" stroke="#26324a"/>
    <circle cx="1106" cy="344" r="4" fill="#34d399"/>
    <text x="1104" y="368" fill="#e7edf6" font-size="18" font-weight="800">2</text>
    <text x="1104" y="380" fill="#8a97ad" font-size="10">Info</text>
  </g>

  <!-- Findings -->
  <rect x="718" y="414" width="458" height="258" rx="16" fill="#0f1420" stroke="#1c2638"/>
  <text x="742" y="446" fill="#8a97ad" font-size="11" font-weight="700" letter-spacing="1">FINDINGS</text>

  <rect x="742" y="460" width="410" height="58" rx="10" fill="#141b2a" stroke="#1c2638"/>
  <rect x="742" y="460" width="3" height="58" fill="#f43f5e"/>
  <rect x="760" y="474" width="58" height="18" rx="9" fill="#f43f5e" fill-opacity="0.16"/>
  <text x="789" y="487" fill="#fda4af" font-size="10" font-weight="700" text-anchor="middle">Critical</text>
  <text x="826" y="488" fill="#22d3ee" font-size="10" font-family="Consolas, monospace">PS-W001</text>
  <text x="760" y="508" fill="#e7edf6" font-size="13" font-weight="600">Privileged container</text>

  <rect x="742" y="528" width="410" height="58" rx="10" fill="#141b2a" stroke="#1c2638"/>
  <rect x="742" y="528" width="3" height="58" fill="#fb923c"/>
  <rect x="760" y="542" width="44" height="18" rx="9" fill="#fb923c" fill-opacity="0.16"/>
  <text x="782" y="555" fill="#fdba74" font-size="10" font-weight="700" text-anchor="middle">High</text>
  <text x="812" y="556" fill="#22d3ee" font-size="10" font-family="Consolas, monospace">PS-A004</text>
  <text x="760" y="576" fill="#e7edf6" font-size="13" font-weight="600">Binding grants cluster-admin</text>

  <rect x="742" y="596" width="410" height="58" rx="10" fill="#141b2a" stroke="#1c2638"/>
  <rect x="742" y="596" width="3" height="58" fill="#facc15"/>
  <rect x="760" y="610" width="60" height="18" rx="9" fill="#facc15" fill-opacity="0.16"/>
  <text x="790" y="623" fill="#fde047" font-size="10" font-weight="700" text-anchor="middle">Medium</text>
  <text x="828" y="624" fill="#22d3ee" font-size="10" font-family="Consolas, monospace">PS-N003</text>
  <text x="760" y="644" fill="#e7edf6" font-size="13" font-weight="600">Ingress without TLS</text>
</svg>
